<svg width="567" height="199" viewBox="0 0 567 199" fill="none" xmlns="http://www.w3.org/2000/svg">
<path d="M23.0817 23.1659C29.2692 27.2909 100.548 69.0807 135.413 89.4601C143.762 94.3707 155.449 107.58 135.413 121.134C115.378 134.687 52.423 175.397 23.45 194.058C14.6108 199.091 -0.56322 203.486 9.45457 180.799C20.6509 158.701 28.9745 144.705 31.1843 140.286L40.838 125.269C41.0311 124.968 41.2503 124.69 41.5165 124.451C44.1757 122.073 52.0233 117.21 65.4363 114.136C69.9832 113.094 74.2966 112.024 78.1954 111.007L95.637 106.034C97.1102 105.297 99.1727 102.719 95.637 101.246L77.9586 96.0895C77.9586 96.0895 74.5246 95.5437 70.2406 94.8044C64.5711 93.8261 57.4129 92.509 54.7556 91.6699C50.0905 90.1967 37.4455 79.1476 30.816 66.2571C24.2966 53.5804 7.10751 30.5089 10.0262 23.5064C10.1243 23.271 10.2688 23.064 10.4271 22.8641C10.9946 22.1472 11.7778 21.2727 13.154 20.8883C15.5759 20.2117 19.3343 20.6677 23.0817 23.1659Z" fill="url(#paint0_linear_18_178)"/>
<path d="M95.3011 105.797C96.6949 104.849 98.1234 102.589 94.9006 101.246L77.2221 96.0895C77.2221 96.0895 75.8057 95.8644 73.6575 95.5075C71.257 95.1087 69.5042 93.0267 69.5042 90.5933V83.1371C69.5042 79.1699 73.8813 76.805 77.1561 79.0442C84.0577 83.7633 93.5955 90.5654 96.7584 94.1802C101.915 100.073 100.81 107.439 96.7584 113.332C94.5551 116.537 84.8118 123.032 76.6335 127.816C73.4139 129.699 69.5042 127.333 69.5042 123.603V117.049C69.5042 114.816 70.9853 112.853 73.133 112.241L94.4524 106.161C94.7505 106.076 95.0448 105.971 95.3011 105.797Z" fill="url(#paint1_linear_18_178)"/>
<path d="M95.3011 105.797C96.6949 104.849 98.1234 102.589 94.9006 101.246L77.2221 96.0895C77.2221 96.0895 75.8057 95.8644 73.6575 95.5075C71.257 95.1087 69.5042 93.0267 69.5042 90.5933V83.1371C69.5042 79.1699 73.8813 76.805 77.1561 79.0442C84.0577 83.7633 93.5955 90.5654 96.7584 94.1802C101.915 100.073 100.81 107.439 96.7584 113.332C94.5551 116.537 84.8118 123.032 76.6335 127.816C73.4139 129.699 69.5042 127.333 69.5042 123.603V117.049C69.5042 114.816 70.9853 112.853 73.133 112.241L94.4524 106.161C94.7505 106.076 95.0448 105.971 95.3011 105.797Z" fill="url(#paint2_linear_18_178)"/>
<path d="M99.7046 44.6693V33.9373C99.7046 32.8327 100.6 31.9373 101.705 31.9373H112.437C113.541 31.9373 114.437 32.8327 114.437 33.9373V44.6693C114.437 45.7739 113.541 46.6693 112.437 46.6693H101.705C100.6 46.6693 99.7046 45.7739 99.7046 44.6693Z" fill="#006FFF" stroke="#006FFF" stroke-opacity="0.6" stroke-width="2"/>
<path d="M50.3525 10.7856V3C50.3525 1.89543 51.248 1 52.3525 1H60.5065C61.611 1 62.5065 1.89543 62.5065 3V10.7856C62.5065 11.8902 61.611 12.7856 60.5065 12.7856H52.3525C51.248 12.7856 50.3525 11.8902 50.3525 10.7856Z" fill="#F07033" stroke="#F07033" stroke-opacity="0.6" stroke-width="2"/>
<path d="M81.2896 18.8883V14.049C81.2896 12.9445 82.185 12.049 83.2896 12.049H87.7605C88.865 12.049 89.7605 12.9445 89.7605 14.049V18.8883C89.7605 19.9928 88.865 20.8883 87.7605 20.8883H83.2896C82.185 20.8883 81.2896 19.9928 81.2896 18.8883Z" fill="#0885FD" stroke="#0885FD" stroke-opacity="0.6" stroke-width="2"/>
<path d="M19.415 96.9681V92.1288C19.415 91.0243 20.3105 90.1288 21.415 90.1288H26.2543C27.3588 90.1288 28.2543 91.0243 28.2543 92.1288V96.9681C28.2543 98.0726 27.3588 98.9681 26.2543 98.9681H21.415C20.3105 98.9681 19.415 98.0726 19.415 96.9681Z" fill="#FF0E8E" stroke="#FF0E8E" stroke-opacity="0.6" stroke-width="2"/>
<path d="M1.73657 124.222V114.964C1.73657 113.859 2.632 112.964 3.73657 112.964H12.9954C14.1 112.964 14.9954 113.859 14.9954 114.964V124.222C14.9954 125.327 14.1 126.222 12.9954 126.222H3.73657C2.632 126.222 1.73657 125.327 1.73657 124.222Z" fill="#FB02A8" stroke="#FB02A8" stroke-opacity="0.6" stroke-width="2"/>
<path d="M73.9236 43.1961V38.3569C73.9236 37.2523 74.819 36.3569 75.9236 36.3569H81.4994C82.604 36.3569 83.4994 37.2523 83.4994 38.3569V43.1961C83.4994 44.3007 82.604 45.1961 81.4994 45.1961H75.9236C74.819 45.1961 73.9236 44.3007 73.9236 43.1961Z" fill="#EC5F58" stroke="#EC5F58" stroke-opacity="0.6" stroke-width="2"/>
<path d="M118.856 64.5576V58.9818C118.856 57.8772 119.752 56.9818 120.856 56.9818H125.695C126.8 56.9818 127.695 57.8772 127.695 58.9818V64.5576C127.695 65.6622 126.8 66.5576 125.695 66.5576H120.856C119.752 66.5576 118.856 65.6622 118.856 64.5576Z" fill="#016AF7" stroke="#016AF7" stroke-opacity="0.6" stroke-width="2"/>
<path d="M1 70.4504V63.4014C1 62.2968 1.89543 61.4014 3 61.4014H9.31243C10.417 61.4014 11.3124 62.2968 11.3124 63.4014V70.4504C11.3124 71.555 10.417 72.4504 9.31243 72.4504H3C1.89543 72.4504 1 71.555 1 70.4504Z" fill="#F84258" stroke="#F84258" stroke-opacity="0.6" stroke-width="2"/>
<path d="M546.958 126.086C542.963 126.086 539.501 125.207 536.571 123.449C533.642 121.691 531.369 119.232 529.753 116.071C528.155 112.911 527.356 109.218 527.356 104.992C527.356 100.766 528.155 97.064 529.753 93.8857C531.369 90.7074 533.642 88.2394 536.571 86.4816C539.501 84.7238 542.963 83.8448 546.958 83.8448C550.954 83.8448 554.416 84.7238 557.346 86.4816C560.275 88.2394 562.539 90.7074 564.137 93.8857C565.753 97.064 566.561 100.766 566.561 104.992C566.561 109.218 565.753 112.911 564.137 116.071C562.539 119.232 560.275 121.691 557.346 123.449C554.416 125.207 550.954 126.086 546.958 126.086ZM547.012 118.362C549.178 118.362 550.989 117.767 552.445 116.577C553.901 115.37 554.984 113.754 555.694 111.73C556.422 109.706 556.786 107.451 556.786 104.965C556.786 102.462 556.422 100.198 555.694 98.1737C554.984 96.1318 553.901 94.5071 552.445 93.2997C550.989 92.0924 549.178 91.4887 547.012 91.4887C544.792 91.4887 542.946 92.0924 541.472 93.2997C540.016 94.5071 538.924 96.1318 538.196 98.1737C537.486 100.198 537.131 102.462 537.131 104.965C537.131 107.451 537.486 109.706 538.196 111.73C538.924 113.754 540.016 115.37 541.472 116.577C542.946 117.767 544.792 118.362 547.012 118.362Z" fill="white"/>
<path d="M480.949 125.287V70.7411H490.59V91.1424H490.99C491.487 90.1481 492.188 89.0916 493.094 87.973C493.999 86.8367 495.225 85.869 496.769 85.07C498.314 84.2532 500.285 83.8448 502.682 83.8448C505.842 83.8448 508.692 84.6527 511.231 86.2685C513.788 87.8665 515.812 90.2369 517.304 93.3796C518.813 96.5046 519.568 100.34 519.568 104.885C519.568 109.378 518.831 113.195 517.357 116.338C515.883 119.48 513.877 121.878 511.338 123.529C508.799 125.18 505.922 126.006 502.709 126.006C500.365 126.006 498.421 125.615 496.876 124.834C495.331 124.053 494.088 123.112 493.147 122.011C492.224 120.892 491.505 119.836 490.99 118.841H490.431V125.287H480.949ZM490.404 104.832C490.404 107.478 490.777 109.795 491.522 111.783C492.286 113.772 493.378 115.326 494.798 116.444C496.237 117.545 497.977 118.096 500.019 118.096C502.149 118.096 503.934 117.527 505.372 116.391C506.81 115.237 507.893 113.666 508.621 111.677C509.367 109.67 509.74 107.389 509.74 104.832C509.74 102.293 509.376 100.038 508.648 98.0671C507.92 96.0963 506.837 94.5515 505.399 93.4329C503.96 92.3143 502.167 91.755 500.019 91.755C497.959 91.755 496.21 92.2965 494.772 93.3796C493.334 94.4627 492.242 95.9809 491.496 97.934C490.768 99.8871 490.404 102.186 490.404 104.832Z" fill="white"/>
<path d="M433.022 126.086C428.92 126.086 425.378 125.233 422.395 123.529C419.43 121.806 417.148 119.374 415.55 116.231C413.952 113.071 413.153 109.351 413.153 105.072C413.153 100.864 413.952 97.1705 415.55 93.9922C417.166 90.7962 419.421 88.3104 422.315 86.5348C425.209 84.7415 428.61 83.8448 432.516 83.8448C435.037 83.8448 437.416 84.2532 439.654 85.07C441.909 85.869 443.897 87.1119 445.62 88.7987C447.36 90.4855 448.727 92.6339 449.721 95.244C450.715 97.8363 451.213 100.926 451.213 104.512V107.469H417.681V100.97H441.971C441.953 99.1236 441.554 97.4812 440.772 96.043C439.991 94.587 438.899 93.4418 437.496 92.6073C436.111 91.7728 434.496 91.3555 432.649 91.3555C430.678 91.3555 428.947 91.8349 427.456 92.7937C425.964 93.7348 424.801 94.9777 423.967 96.5224C423.15 98.0494 422.732 99.7273 422.715 101.556V107.229C422.715 109.608 423.15 111.65 424.02 113.355C424.89 115.042 426.106 116.338 427.669 117.243C429.231 118.131 431.06 118.575 433.155 118.575C434.558 118.575 435.827 118.38 436.964 117.989C438.1 117.581 438.926 116.897 439.92 116.205C441.5 115.104 442 114.604 443 113.988L448 121.104C446 122.604 443.959 123.671 441.491 124.647C439.023 125.606 436.2 126.086 433.022 126.086Z" fill="white"/>
<path d="M377.499 101.316V125.287H367.858V84.3775H377.073V91.3289H377.553C378.494 89.0384 379.994 87.2184 382.054 85.869C384.131 84.5196 386.697 83.8448 389.751 83.8448C392.574 83.8448 395.033 84.4485 397.128 85.6559C399.241 86.8633 400.875 88.6122 402.029 90.9027C403.201 93.1932 403.778 95.972 403.76 99.239V125.287H394.119V100.73C394.119 97.9961 393.409 95.8566 391.988 94.3118C390.585 92.7671 388.641 91.9947 386.155 91.9947C384.469 91.9947 382.968 92.3676 381.654 93.1133C380.358 93.8413 379.337 94.8978 378.591 96.2827C377.863 97.6676 377.499 99.3456 377.499 101.316Z" fill="white"/>
<path d="M346.953 125.287V84.3775H356.594V125.287H346.953ZM351.8 78.5714C350.273 78.5714 348.959 78.0654 347.858 77.0533C346.757 76.0235 346.207 74.7894 346.207 73.3512C346.207 71.8953 346.757 70.6612 347.858 69.6492C348.959 68.6193 350.273 68.1044 351.8 68.1044C353.345 68.1044 354.658 68.6193 355.742 69.6492C356.842 70.6612 357.393 71.8953 357.393 73.3512C357.393 74.7894 356.842 76.0235 355.742 77.0533C354.658 78.0654 353.345 78.5714 351.8 78.5714Z" fill="white"/>
<path d="M316.519 141.48C313.056 141.48 309 141.104 307 140.604C305 140.104 303.5 139.604 300.585 138.104C298.5 137.104 298.5 137.104 297.266 135.604L302.5 128.604C303.5 130.104 305.5 131.104 307 132.104C309 133.104 310.216 133.162 311.858 133.383C313.5 133.604 314.565 133.604 316.5 133.604C319.234 133.604 321.677 133.516 323.47 132.185C325.263 130.871 326.16 128.705 326.16 125.686V117.936H325.681C325.183 118.93 324.455 119.951 323.497 120.999C322.556 122.046 321.304 122.925 319.741 123.635C318.197 124.346 316.252 124.701 313.909 124.701C310.766 124.701 307.916 123.964 305.359 122.49C302.82 120.999 300.796 118.779 299.287 115.832C297.795 112.867 297.05 109.156 297.05 104.699C297.05 100.207 297.795 96.4159 299.287 93.3264C300.796 90.2191 302.829 87.8665 305.386 86.2685C307.943 84.6527 310.792 83.8448 313.935 83.8448C316.332 83.8448 318.303 84.2532 319.848 85.07C321.41 85.869 322.653 86.8367 323.577 87.973C324.5 89.0916 325.201 90.1481 325.681 91.1424H326.213V84.3775H335.721V125.952C335.721 129.45 334.887 132.344 333.218 134.635C331.549 136.925 329.267 138.639 326.373 139.775C323.479 140.912 320.194 141.48 316.519 141.48ZM316.599 117.137C318.64 117.137 320.381 116.64 321.819 115.645C323.257 114.651 324.349 113.222 325.095 111.357C325.84 109.493 326.213 107.256 326.213 104.646C326.213 102.071 325.84 99.8161 325.095 97.8807C324.367 95.9453 323.284 94.445 321.845 93.3796C320.425 92.2965 318.676 91.755 316.599 91.755C314.45 91.755 312.657 92.3143 311.219 93.4329C309.78 94.5515 308.697 96.0874 307.969 98.0405C307.241 99.9759 306.877 102.178 306.877 104.646C306.877 107.149 307.241 109.342 307.969 111.224C308.715 113.088 309.807 114.544 311.245 115.592C312.701 116.622 314.486 117.137 316.599 117.137Z" fill="white"/>
<path d="M266.083 126.112C263.491 126.112 261.156 125.651 259.078 124.727C257.019 123.786 255.385 122.401 254.178 120.572C252.988 118.744 252 116.786 252 114.104C252 111.796 252.148 109.298 253 107.788C253.852 106.279 254.526 104.51 256 103.604C257.474 102.699 259.153 101.566 261 101.104C262.864 100.625 265.011 100.317 267 100.104C269.397 99.8559 272 100.604 272 100.604L278.042 103.104C278.042 103.104 278.042 98.6176 278.042 97.6943V97.5345C278.042 95.5281 277.19 94.7053 276 93.6044C274.81 92.5036 273.301 92.1044 271.064 92.1044C268.702 92.1044 266.5 92.3034 265.364 92.6044C263.1 93.2043 257.979 95.2017 257.5 96.6044L254 91.1044C255.5 88.6044 258 87.1044 258 87.1044C260 86.1044 260.872 85.9578 263.233 85.1233C265.595 84.271 268.205 83.8448 271.064 83.8448C273.034 83.8448 274.996 84.0757 276.95 84.5373C278.903 84.999 280.687 85.7625 282.303 86.8278C283.919 87.8754 285.215 89.3047 286.191 91.1158C287.186 92.9269 287.683 95.1907 287.683 97.9073V125.287H278.414V119.667H278.095C277.509 120.803 276.683 121.869 275.618 122.863C274.57 123.84 273.248 124.63 271.649 125.233C270.069 125.819 268.214 126.112 266.083 126.112ZM268.587 119.028C270.522 119.028 272.2 118.646 273.62 117.882C275.041 117.101 276.133 116.071 276.896 114.793C277.678 113.515 278.068 112.121 278.068 110.612V105.791C277.766 106.039 277.251 106.27 276.523 106.483C275.813 106.696 275.014 106.883 274.126 107.043C273.239 107.202 272.36 107.344 271.49 107.469C270.62 107.593 269.865 107.7 269.226 107.788C267.788 107.984 266.5 108.303 265.364 108.747C264.228 109.191 263.331 109.813 262.674 110.612C262.017 111.393 261.689 112.405 261.689 113.648C261.689 115.423 262.337 116.764 263.633 117.669C264.929 118.575 266.58 119.028 268.587 119.028Z" fill="white"/>
<path d="M185.651 125.287V84.3775H194.867V91.3289H195.346C196.198 88.9851 197.61 87.1563 199.581 85.8424C201.552 84.5107 203.904 83.8448 206.639 83.8448C209.408 83.8448 211.743 84.5196 213.643 85.869C215.561 87.2007 216.91 89.0206 217.691 91.3289H218.118C219.023 89.0561 220.55 87.2451 222.699 85.8956C224.865 84.5284 227.43 83.8448 230.396 83.8448C234.16 83.8448 237.232 85.0345 239.611 87.4137C241.99 89.793 243.18 93.2642 243.18 97.8274V125.287H233.512V99.3189C233.512 96.7799 232.837 94.9244 231.488 93.7525C230.138 92.5629 228.487 91.9681 226.534 91.9681C224.208 91.9681 222.388 92.6961 221.074 94.152C219.778 95.5902 219.13 97.4635 219.13 99.7717V125.287H209.675V98.9194C209.675 96.8065 209.036 95.1197 207.757 93.8591C206.497 92.5984 204.845 91.9681 202.803 91.9681C201.418 91.9681 200.158 92.3232 199.021 93.0334C197.885 93.7259 196.979 94.7113 196.305 95.9897C195.63 97.2504 195.293 98.7241 195.293 100.411V125.287H185.651Z" fill="white"/>
<path d="M164.746 125.287V84.3775H174.387V125.287H164.746ZM169.593 78.5714C168.066 78.5714 166.752 78.0654 165.651 77.0533C164.55 76.0235 164 74.7894 164 73.3512C164 71.8953 164.55 70.6612 165.651 69.6492C166.752 68.6193 168.066 68.1044 169.593 68.1044C171.138 68.1044 172.452 68.6193 173.535 69.6492C174.636 70.6612 175.186 71.8953 175.186 73.3512C175.186 74.7894 174.636 76.0235 173.535 77.0533C172.452 78.0654 171.138 78.5714 169.593 78.5714Z" fill="white"/>
<circle cx="464" cy="118.104" r="8" fill="url(#paint3_linear_18_178)"/>
<defs>
<linearGradient id="paint0_linear_18_178" x1="0.615372" y1="44.5273" x2="146.463" y2="103.455" gradientUnits="userSpaceOnUse">
<stop stop-color="#EF7F2D"/>
<stop offset="0.23269" stop-color="#F94459"/>
<stop offset="0.471235" stop-color="#FB02A5"/>
<stop offset="0.667548" stop-color="#C23AC0"/>
<stop offset="1" stop-color="#0171FF"/>
</linearGradient>
<linearGradient id="paint1_linear_18_178" x1="-0.121086" y1="44.5273" x2="145.726" y2="103.455" gradientUnits="userSpaceOnUse">
<stop stop-color="#EF7F2D"/>
<stop offset="0.23269" stop-color="#F94459"/>
<stop offset="0.471235" stop-color="#FB02A5"/>
<stop offset="0.667548" stop-color="#C23AC0"/>
<stop offset="1" stop-color="#0171FF"/>
</linearGradient>
<linearGradient id="paint2_linear_18_178" x1="69.5042" y1="104.124" x2="114.437" y2="104.124" gradientUnits="userSpaceOnUse">
<stop offset="0.120192" stop-opacity="0"/>
<stop offset="0.7" stop-opacity="0.5"/>
<stop offset="1"/>
</linearGradient>
<linearGradient id="paint3_linear_18_178" x1="455" y1="118.104" x2="472" y2="118.104" gradientUnits="userSpaceOnUse">
<stop stop-color="#104DB2"/>
<stop offset="1" stop-color="#C070E3"/>
</linearGradient>
</defs>
</svg>
